<svg width="128mm" height="96mm" viewBox="0 0 128 96" xml:space="preserve" xmlns="http://www.w3.org/2000/svg"><g transform="translate(-54.91 -100.65)"><path style="fill:#222;fill-opacity:1;stroke:none;stroke-width:.291959;stroke-opacity:1" d="M133.782 103.823c-2.822 1.611-5.269 3.597-7.984 5.958l17.637 24.668-37.18 12.751-5.665 2.627-28.274-28.129-.418.083-11.72-11.6c-1.614 2.037-3.282 4.45-4.04 6.113l23.983 27.188 7.162 13.736-2.67 2.492-5.692 5.09c-.604.596-1.158 2.243-1.024 3.89-.233.331-.407.646-.454.924.165.137.403.22.686.267.131.405.313.795.566 1.15 1.676 2.061 4.071 3.03 6.4 2.502l12.816-4.171 14.302 4.889 3.217 2.74-1.227.263s-1.329 1.254-.4 2.055c.93.802 2.014.436 2.014.436l1.997-.49 18.59 14.897 8.699-.596-9.414-9.07.34-.11-22.028-21.803 7.15-2.86 29.338-18.525 21.07 17.214c3.574-2.285 7.417-5.427 10.724-8.461l-18.003-18.91c.972-.98.925-1.531.343-2.78L176.62 111.6l-1.01-1.103-12.703 5.856-6.96 7.133zM83.136 147.2l7.224 7.5-2.343 1.9zm20.229 20.083 6.941 5.18-11.022-3.694z"/><ellipse style="fill:#222;fill-opacity:.15;stroke:none;stroke-width:.478809;stroke-opacity:1" cx="-48.577" cy="181.416" rx="11.132" ry="14.604" transform="rotate(-40)"/></g></svg>