<svg viewBox="0 0 360 225" xmlns="http://www.w3.org/2000/svg"><path style="stroke:#000" d="M143.679 175.192c-2.503 0-16.857-9.575-18.104-12.069-1.474-2.949-2.383-4.969-4.31-6.897-.175-.174.45-4.76-.862-3.448-9.044 9.043-24.505 9.666-37.931 16.379-5.098 2.549-15.518-.798-15.518-4.31 0-.47-13.747-2.54-14.655-3.448-4.512-4.513-18.175-9.95-25.862-13.793-1.544-.772-13.912-5.916-12.069-7.759 4.509-4.509 12.341-11.478 17.242-16.379 2.466-2.467 17.469 7.873 20.689 9.483 14.675 7.337 38.85 10.288 49.138 0 3.057-3.057 11.207-6.307 11.207-9.483.575 0 3.448.243 3.448.862-1.132-2.266 22.313-.626 25.862-.862 18.171-1.212 34.445-4.311 52.587-4.311 0 3.743 9.352 9.614 13.793 5.173 8.197-8.197 19.491-13.982 26.724-28.448 2.702-5.405 4.886-10.634 7.758-16.38 2.818-5.635-1.565-14.496-3.448-16.379-4.386-4.386-5.172-15.833-5.172-23.276 0-5.805 1.69-12.862 4.31-18.103.312-.623 1.724-6.897 1.724-6.897s14.544 6.859 17.242 7.759c3.291 1.097 13.511-3.73 16.379-.862.262.262-2.337 3.198-2.586 3.448-2.234 2.234-2.256 9.152-4.311 11.207-4.03 4.03-9.884 5.114-12.931 11.207-1.868 3.737 5.055 13.557 6.897 17.241 1.436 2.873-1.015 11.131 2.586 12.931 7.865 3.932 7.892-7.03 10.345-9.483 7.755-7.755 10.288-25.73 15.517-37.931 10.678-24.915 43.815-26.013 62.931-6.896.404.404-9.952 16.614-12.931 18.103-5.509 2.755-6.757-11.346-14.655-3.448-2.085 2.085-3.247 7.457-5.172 10.345l-25.862 38.793c-1.734 2.6-9.284 13.13-14.656 7.759-1.386-1.386-.904 5.214-2.586 6.896-3.171 3.171-8.143 13.606-9.483 18.966-3.558 14.234-21.331 34.623-35.344 43.965-8.228 5.485-21.048 6.393-25.863 11.207-8.566 8.566-34.234 24.342-49.137 29.31-6.641 2.214-18.895 1.742-25.862 0-5.479-1.369-14.005 2.481-18.966 0-5.955-2.977-18.37-1.991-23.276-6.896-1.724-1.724-.862-6.035-2.586-7.759-1.474-1.474-6.273-3.925-7.759-6.896-.652-1.305 18.911 1.993 20.69 2.586 8.695 2.898 26.715.004 33.621-3.448 3.172-1.587 11.204-2.59 11.207-7.759z"/><path style="stroke:#000" d="M133.334 68.295c-23.607 13.512-18.052 41.433-.863 53.449 23.301 16.289 44.235 4.041 52.587-7.759 9.709-13.718 12.341-28.168 1.724-39.655-13.271-14.359-28.675-20.214-53.448-6.035z"/></svg>